<svg width="20" height="20" viewBox="0 0 20 20" fill="none" xmlns="http://www.w3.org/2000/svg">
    <path d="M4.09 8.523h3.463M4.09 10.547h3.463M4.09 12.57h3.463M12.477 8.523h3.443M12.477 10.547h3.443M12.477 12.57h3.443" stroke="#0E8132" stroke-linecap="round" stroke-linejoin="round"/>
    <path clip-rule="evenodd" d="M10 16V6.111C10 5.498 8.255 5 6 5s-4 .498-4 1.111V16c.728-.192 2.51-.303 4-.303 1.49 0 2.546.11 4 .303zM18 16V6.111C18 5.498 16.255 5 14 5s-4 .498-4 1.111V16c1.454-.192 2.508-.303 4-.303 1.49 0 3.273.11 4 .303z" stroke="#0E8132" stroke-linecap="round" stroke-linejoin="round"/>
</svg>
