<svg width="20" height="20" viewBox="0 0 20 20" fill="none" xmlns="http://www.w3.org/2000/svg">
    <path d="M3.422 10.672v2.284" stroke="#0A6CB9" stroke-linecap="round" stroke-linejoin="round"/>
    <path clip-rule="evenodd" d="M4.24 14.566a.424.424 0 0 1-.412.434h-.814a.424.424 0 0 1-.412-.434l.195-1.177c0-.24.184-.434.413-.434h.424c.228 0 .412.193.412.434l.194 1.177zM4.667 4h11.179L18 9.141H2L4.667 4z" stroke="#0A6CB9" stroke-linecap="round" stroke-linejoin="round"/>
    <path d="m6.728 9.14-.923 4.254c0 1.03 1.889 1.605 4.219 1.605s4.22-.576 4.22-1.605l-.924-4.253M3.516 6.217h6.266" stroke="#0A6CB9" stroke-linecap="round" stroke-linejoin="round"/>
</svg>
