<svg width="20" height="20" viewBox="0 0 20 20" fill="none" xmlns="http://www.w3.org/2000/svg">
    <path d="M11.027 11.076 7.154 12.68 2 10.12M18.001 8.225l-3.415 1.403M18 6.572 12.773 4 2 8.47M14.586 7.994 18 6.57" stroke="#D34D09" stroke-linecap="round" stroke-linejoin="round"/>
    <path d="m2 8.47 5.154 2.558 3.873-1.591M11.027 12.786l-3.873 1.588L2 11.816M18.001 9.918l-3.415 1.414" stroke="#D34D09" stroke-linecap="round" stroke-linejoin="round"/>
    <path d="M18 11.543 7.155 15.999 2 13.44" stroke="#D34D09" stroke-linecap="round" stroke-linejoin="round"/>
    <path d="M11.026 14.41V9.435L5.824 6.883M9.484 5.365l5.1 2.631v4.952" stroke="#D34D09" stroke-linecap="round" stroke-linejoin="round"/>
    <path d="M10.689 8.198c.244.093.598-.034.675-.29.074-.249.03-.5-.255-.643a.766.766 0 0 0-.822.11c-.216.18-.53.257-.817.116-.286-.142-.337-.395-.22-.627.08-.156.254-.241.447-.237M9.04 6.6l.301.149M11.324 7.994l.28.14" stroke="#D34D09" stroke-linecap="round" stroke-linejoin="round"/>
</svg>
