<svg width="20" height="20" viewBox="0 0 20 20" fill="none" xmlns="http://www.w3.org/2000/svg">
    <path clip-rule="evenodd" d="M4.34 4.34c-3.12 3.121-3.12 8.199 0 11.32 3.12 3.12 8.199 3.12 11.32 0 3.12-3.12 3.12-8.199-.001-11.32-3.121-3.12-8.198-3.12-11.319 0z" stroke="#0A6CB9" stroke-linecap="round" stroke-linejoin="round"/>
    <path clip-rule="evenodd" d="m14.665 8.34-3.302-.067L10.28 5.19a.298.298 0 0 0-.562 0L8.633 8.273l-3.302.068a.298.298 0 0 0-.172.536l2.63 1.973-.956 3.123c-.083.27.223.492.453.333l2.712-1.868 2.713 1.868c.23.158.536-.062.453-.333l-.957-3.123 2.63-1.973a.298.298 0 0 0-.172-.536z" stroke="#0A6CB9" stroke-linecap="round" stroke-linejoin="round"/>
</svg>
