<svg width="20" height="20" viewBox="0 0 20 20" fill="none" xmlns="http://www.w3.org/2000/svg">
    <path d="M9.5 5.512c.506.336 1.395 1.18 1.74 1.976.552 1.274.472 2.66-1.134 2.003a.509.509 0 0 1-.29-.291l-.984-2.714c-.409-1.175-2.265-.591-1.84.631l1.406 4.037c.223.642 1.351 2.422 2.868 3.931" stroke="#D34D09" stroke-linecap="round" stroke-linejoin="round"/>
    <path clip-rule="evenodd" d="M15.25 12.477 17 14.888 12.248 18l-1.75-2.41 4.752-3.113z" stroke="#D34D09" stroke-linecap="round" stroke-linejoin="round"/>
    <path d="M7.31 8.033a3.873 3.873 0 0 1-1.046.165C4.46 8.198 3 6.811 3 5.1 3 3.387 4.461 2 6.264 2c1.803 0 3.264 1.387 3.264 3.099 0 .6-.267 1.243-.578 1.718" stroke="#D34D09" stroke-linecap="round" stroke-linejoin="round"/>
    <path d="M8.629 2.963s5.593 1.776 5.559 6.003c-.035 4.227.234 4.053.234 4.053" stroke="#D34D09" stroke-linecap="round" stroke-linejoin="round"/>
</svg>
